HIERARCHY
ROOT Hips
{
	OFFSET 0.000000 0.950780 0.000000
	CHANNELS 6 Xposition Yposition Zposition Zrotation Yrotation Xrotation 
	JOINT LeftUpLeg
	{
		OFFSET 0.056811 -0.118698 0.003855
		CHANNELS 3 Zrotation Yrotation Xrotation
		JOINT LeftLeg
		{
			OFFSET 0.010847 -0.373097 0.010862
			CHANNELS 3 Zrotation Yrotation Xrotation
			JOINT LeftFoot
			{
				OFFSET -0.056927 -0.407567 -0.128846
				CHANNELS 3 Zrotation Yrotation Xrotation
				End Site #name: LeftToeBase
				{
					OFFSET 0.035213 -0.033257 0.130343
				}
			}
		}
	}
	JOINT rightUpLeg
	{
		OFFSET -0.060355 -0.127276 -0.007853
		CHANNELS 3 Zrotation Yrotation Xrotation
		JOINT RightLeg
		{
			OFFSET -0.128056 -0.307616 0.145228
			CHANNELS 3 Zrotation Yrotation Xrotation
			JOINT RightFoot
			{
				OFFSET -0.016129 -0.427058 0.047128
				CHANNELS 3 Zrotation Yrotation Xrotation
				End Site #name: RightToeBase
				{
					OFFSET -0.090829 -0.060709 0.106927
				}
			}
		}
	}
	JOINT Spine
	{
		OFFSET 0.010156 0.071698 -0.051180
		CHANNELS 3 Zrotation Yrotation Xrotation
		JOINT Spine1
		{
			OFFSET 0.007138 0.135754 0.067196
			CHANNELS 3 Zrotation Yrotation Xrotation
			JOINT Spine2
			{
				OFFSET -0.001935 0.060165 0.022110
				CHANNELS 3 Zrotation Yrotation Xrotation
				JOINT Neck
				{
					OFFSET -0.008419 0.220347 0.045475
					CHANNELS 3 Zrotation Yrotation Xrotation
					End Site #name: Head
					{
						OFFSET 0.001385 0.052806 0.062896
					}
				}
				JOINT LeftShoulder
				{
					OFFSET 0.075395 0.128340 0.031482
					CHANNELS 3 Zrotation Yrotation Xrotation
					JOINT LeftArm
					{
						OFFSET 0.125807 -0.019705 0.003693
						CHANNELS 3 Zrotation Yrotation Xrotation
						JOINT LeftForeArm
						{
							OFFSET 0.026956 -0.273830 -0.002832
							CHANNELS 3 Zrotation Yrotation Xrotation
							End Site #name: LeftHand
							{
								OFFSET -0.010758 -0.200669 0.164700
							}
						}
					}
				}
				JOINT RightShoulder
				{
					OFFSET -0.079941 0.134775 0.008744
					CHANNELS 3 Zrotation Yrotation Xrotation
					JOINT RightArm
					{
						OFFSET -0.117096 -0.018781 -0.000298
						CHANNELS 3 Zrotation Yrotation Xrotation
						JOINT RightForeArm
						{
							OFFSET -0.025919 -0.288599 0.058726
							CHANNELS 3 Zrotation Yrotation Xrotation
							End Site #name: RightHand
							{
								OFFSET -0.037486 -0.102965 0.243889
							}
						}
					}
				}
			}
		}
	}
}
MOTION
Frames: 7
Frame Time: 0.041667
0.000000 0.950780 0.000000 0.000000 0.000000 -0.000000 0.000000 0.000000 0.000000 0.000000 0.000000 0.000000 0.000000 0.000000 0.000000 0.000000 0.000000 0.000000 -0.000000 -0.000000 0.000000 0.000000 0.000000 0.000000 0.000000 0.000000 0.000000 0.000000 0.000000 0.000000 -0.000000 -0.000000 -0.000000 0.000000 0.000000 0.000000 0.000000 0.000000 0.000000 0.000000 0.000000 0.000000 0.000000 0.000000 0.000000 0.000000 0.000000 -0.000000 0.000000 0.000000 0.000000 0.000000 0.000000 0.000000 
-0.002520 0.948526 0.014137 0.521310 0.368867 -0.015018 -0.084715 0.035323 1.267898 -0.253961 0.132513 -0.381254 0.010563 -0.637002 -0.627910 0.436376 0.156387 0.118550 -2.332887 -0.135242 -7.060610 2.472209 1.471842 1.902367 -0.465939 0.263830 -0.701919 0.259655 -0.093653 0.059504 0.085964 -0.082255 -0.198523 0.268972 -0.324809 0.138439 0.243375 -0.121409 -0.026426 -0.049793 -0.019843 -0.205884 -0.536774 -0.366519 -1.597014 -0.926123 -0.888979 0.152326 1.004210 0.164817 0.401139 0.146363 0.851375 -1.316873 
-0.006436 0.947592 0.029646 1.196780 0.866357 0.238264 0.175050 0.064334 2.151708 -0.726985 0.243225 -0.102610 0.049897 -1.401249 -1.443938 0.890271 0.599197 -0.414866 -3.442367 -0.298922 -10.833132 4.187226 3.395612 2.628979 -0.887621 0.484197 -1.053526 0.609348 -0.232240 -0.319853 0.155611 -0.105013 0.311606 0.792840 -0.976018 0.728021 0.753786 -0.317013 -0.073937 -0.344884 0.010326 0.066593 -1.003745 -0.682428 -3.529336 -1.994921 -1.847061 0.334441 1.997820 0.254574 1.414911 0.412815 2.399067 -3.398384 
-0.012085 0.946854 0.046012 1.800904 1.189582 0.629194 0.232511 0.085872 2.926945 -0.707611 0.249211 -0.193678 0.141251 -2.362250 -2.563957 0.986416 1.019496 -1.282098 -3.124343 -0.235099 -10.635118 3.689316 3.676849 1.892312 -0.860436 0.450399 -0.572092 0.541981 -0.217463 -0.685284 0.442093 -0.133596 0.784155 1.071419 -1.324898 0.981852 1.164401 0.418462 0.035670 -0.407752 0.080313 0.745691 -1.879357 -1.399534 -5.212257 -2.414923 -2.860325 0.527063 2.238236 0.127948 2.990774 0.633817 4.351078 -6.180283 
-0.019278 0.946141 0.062876 2.483431 1.511875 1.318625 0.303047 0.099683 3.440584 -0.551156 0.180222 -0.045408 0.330658 -3.170778 -3.843630 1.076791 1.506376 -2.297030 -2.386765 -0.116937 -8.685449 2.960165 3.349057 1.267462 -0.593067 0.271816 0.468640 0.392353 -0.177522 -1.184081 0.807691 -0.139197 1.270195 1.336444 -1.676822 1.528321 1.614093 1.592814 0.225130 -0.294517 0.236391 2.308678 -3.122872 -2.500277 -7.029600 -2.638663 -3.856198 0.716877 1.965437 -0.123624 4.900383 0.748208 6.806293 -9.802632 
-0.028141 0.945724 0.079968 3.067768 1.736756 2.400526 0.624924 0.096808 3.331640 -0.276180 0.000923 0.629350 0.600077 -3.473325 -4.982778 1.201748 2.079314 -3.451632 -1.332263 -0.003573 -5.484230 1.498950 2.335090 0.226878 0.123751 -0.192599 2.409637 0.304859 -0.166803 -1.891143 1.221159 -0.081313 1.822203 1.445506 -1.849284 2.187538 2.027324 3.329117 0.522861 -0.061042 0.494507 4.984292 -4.746655 -4.038717 -9.001711 -2.552252 -4.171398 0.771489 1.046445 -0.455266 6.797316 0.518031 9.077423 -14.040381 
-0.038392 0.945668 0.096256 3.453934 1.801972 3.799315 1.251553 0.077937 2.290004 0.022820 -0.285090 1.975244 0.842503 -3.246302 -5.650799 1.302769 2.762464 -4.859652 -0.151109 0.072869 -2.451707 -0.618637 1.038639 -1.418027 1.144513 -0.915532 5.235491 0.333662 -0.194278 -2.503475 1.680867 0.033730 2.391015 1.693377 -2.196756 2.804636 2.412146 5.173483 0.852946 -0.104885 0.852372 8.544826 -6.294824 -5.604958 -10.898964 -2.153233 -3.024143 0.549102 -0.205020 -0.701909 7.598261 -0.106049 9.831321 -17.693204 
